<?xml version="1.0" encoding="UTF-8" standalone="no"?>
<!DOCTYPE svg PUBLIC "-//W3C//DTD SVG 1.1//EN" "http://www.w3.org/Graphics/SVG/1.1/DTD/svg11.dtd">
<svg width="100%" height="100%" viewBox="0 0 320 789" version="1.1" xmlns="http://www.w3.org/2000/svg" xmlns:xlink="http://www.w3.org/1999/xlink" xml:space="preserve" xmlns:serif="http://www.serif.com/" style="fill-rule:evenodd;clip-rule:evenodd;stroke-linejoin:round;stroke-miterlimit:2;">
    <g transform="matrix(1,0,0,1,-203.896,-38.9177)">
        <g transform="matrix(1,0,0,2.18588,0,-1088.5)">
            <rect x="203.896" y="515.773" width="320" height="360.792" style="fill:rgb(1,135,147);"/>
        </g>
        <path d="M523.896,533.099L523.896,827.565L203.896,827.565L203.896,533.099C207.961,536.983 231.402,554.92 238.561,566.226C260.294,535.649 283.082,526.271 302.033,519.769C335.154,508.407 374.144,522.417 397.206,547.377C415.017,528.101 440.508,516.022 468.798,516.022L469.428,516.024C489.632,516.151 508.385,522.44 523.896,533.099Z" style="fill:rgb(0,179,194);"/>
        <g>
            <g transform="matrix(1,0,0,1,-85.3022,3.63258)">
                <g transform="matrix(0.921637,0,0,1.00472,26.9471,-3.11649)">
                    <rect x="343.875" y="660.185" width="52.624" height="95.549" style="fill:rgb(1,127,151);"/>
                </g>
                <g transform="matrix(1.28488,0,0,1.20385,-100.024,-103.441)">
                    <rect x="352.094" y="640.962" width="7.005" height="13.291" style="fill:rgb(255,180,8);"/>
                </g>
                <g transform="matrix(1.28488,0,0,1.20385,-77.5238,-103.441)">
                    <rect x="352.094" y="640.962" width="7.005" height="13.291" style="fill:rgb(255,180,8);"/>
                </g>
                <g transform="matrix(1.28488,0,0,1.20385,-77.5238,-79.4406)">
                    <rect x="352.094" y="640.962" width="7.005" height="13.291" style="fill:rgb(255,180,8);"/>
                </g>
                <g transform="matrix(1.28488,0,0,1.20385,-100.024,-79.4406)">
                    <rect x="352.094" y="640.962" width="7.005" height="13.291" style="fill:rgb(255,180,8);"/>
                </g>
                <g transform="matrix(1.28488,0,0,1.20385,-100.024,-55.4406)">
                    <rect x="352.094" y="640.962" width="7.005" height="13.291" style="fill:rgb(255,180,8);"/>
                </g>
                <g transform="matrix(1.28488,0,0,1.20385,-77.5238,-55.4406)">
                    <rect x="352.094" y="640.962" width="7.005" height="13.291" style="fill:rgb(255,180,8);"/>
                </g>
            </g>
            <g transform="matrix(1,0,0,1,22.6577,3.63258)">
                <g transform="matrix(1.37594,0,0,1.50708,-68.5701,-382.767)">
                    <rect x="343.875" y="660.185" width="52.624" height="95.549" style="fill:rgb(1,127,151);"/>
                </g>
                <g transform="matrix(1.28488,0,0,1.20385,5.6821,-103.441)">
                    <rect x="352.094" y="640.962" width="7.005" height="13.291" style="fill:rgb(255,180,8);"/>
                </g>
                <g transform="matrix(1.28488,0,0,1.20385,-16.1144,-127.441)">
                    <rect x="352.094" y="640.962" width="7.005" height="13.291" style="fill:rgb(255,180,8);"/>
                </g>
                <g transform="matrix(1.28488,0,0,1.20385,-16.1144,-151.441)">
                    <rect x="352.094" y="640.962" width="7.005" height="13.291" style="fill:rgb(255,180,8);"/>
                </g>
                <g transform="matrix(1.28488,0,0,1.20385,-39.3179,-103.441)">
                    <rect x="352.094" y="640.962" width="7.005" height="13.291" style="fill:rgb(255,180,8);"/>
                </g>
                <g transform="matrix(1.28488,0,0,1.20385,-16.1144,-103.441)">
                    <rect x="352.094" y="640.962" width="7.005" height="13.291" style="fill:rgb(255,180,8);"/>
                </g>
                <g transform="matrix(1.28488,0,0,1.20385,5.6821,-127.441)">
                    <rect x="352.094" y="640.962" width="7.005" height="13.291" style="fill:rgb(255,180,8);"/>
                </g>
                <g transform="matrix(1.28488,0,0,1.20385,5.6821,-151.441)">
                    <rect x="352.094" y="640.962" width="7.005" height="13.291" style="fill:rgb(255,180,8);"/>
                </g>
                <g transform="matrix(1.28488,0,0,1.20385,-39.3179,-151.441)">
                    <rect x="352.094" y="640.962" width="7.005" height="13.291" style="fill:rgb(255,180,8);"/>
                </g>
                <g transform="matrix(1.28488,0,0,1.20385,-39.3179,-127.441)">
                    <rect x="352.094" y="640.962" width="7.005" height="13.291" style="fill:rgb(255,180,8);"/>
                </g>
                <g transform="matrix(1.28488,0,0,1.20385,-16.8179,-79.4406)">
                    <rect x="352.094" y="640.962" width="7.005" height="13.291" style="fill:rgb(255,180,8);"/>
                </g>
                <g transform="matrix(1.28488,0,0,1.20385,-39.3179,-79.4406)">
                    <rect x="352.094" y="640.962" width="7.005" height="13.291" style="fill:rgb(255,180,8);"/>
                </g>
                <g transform="matrix(1.28488,0,0,1.20385,-39.3179,-55.4406)">
                    <rect x="352.094" y="640.962" width="7.005" height="13.291" style="fill:rgb(255,180,8);"/>
                </g>
                <g transform="matrix(1.28488,0,0,1.20385,-16.1144,-55.4406)">
                    <rect x="352.094" y="640.962" width="7.005" height="13.291" style="fill:rgb(255,180,8);"/>
                </g>
                <g transform="matrix(1.28488,0,0,1.20385,5.6821,-79.4406)">
                    <rect x="352.094" y="640.962" width="7.005" height="13.291" style="fill:rgb(255,180,8);"/>
                </g>
                <g transform="matrix(1.28488,0,0,1.20385,5.6821,-55.4406)">
                    <rect x="352.094" y="640.962" width="7.005" height="13.291" style="fill:rgb(255,180,8);"/>
                </g>
            </g>
            <g transform="matrix(1,0,0,1,-59.7773,-20.3087)">
                <g transform="matrix(1.37594,0,0,1.50708,-68.5701,-382.767)">
                    <rect x="343.875" y="660.185" width="52.624" height="95.549" style="fill:rgb(1,127,151);"/>
                </g>
                <g transform="matrix(1.28488,0,0,1.20385,5.6821,-103.441)">
                    <rect x="352.094" y="640.962" width="7.005" height="13.291" style="fill:rgb(255,180,8);"/>
                </g>
                <g transform="matrix(1.28488,0,0,1.20385,-16.1144,-127.441)">
                    <rect x="352.094" y="640.962" width="7.005" height="13.291" style="fill:rgb(255,180,8);"/>
                </g>
                <g transform="matrix(1.28488,0,0,1.20385,-16.1144,-151.441)">
                    <rect x="352.094" y="640.962" width="7.005" height="13.291" style="fill:rgb(255,180,8);"/>
                </g>
                <g transform="matrix(1.28488,0,0,1.20385,-39.3179,-103.441)">
                    <rect x="352.094" y="640.962" width="7.005" height="13.291" style="fill:rgb(255,180,8);"/>
                </g>
                <g transform="matrix(1.28488,0,0,1.20385,-16.1144,-103.441)">
                    <rect x="352.094" y="640.962" width="7.005" height="13.291" style="fill:rgb(255,180,8);"/>
                </g>
                <g transform="matrix(1.28488,0,0,1.20385,5.6821,-127.441)">
                    <rect x="352.094" y="640.962" width="7.005" height="13.291" style="fill:rgb(255,180,8);"/>
                </g>
                <g transform="matrix(1.28488,0,0,1.20385,5.6821,-151.441)">
                    <rect x="352.094" y="640.962" width="7.005" height="13.291" style="fill:rgb(255,180,8);"/>
                </g>
                <g transform="matrix(1.28488,0,0,1.20385,-39.3179,-151.441)">
                    <rect x="352.094" y="640.962" width="7.005" height="13.291" style="fill:rgb(255,180,8);"/>
                </g>
                <g transform="matrix(1.28488,0,0,1.20385,-39.3179,-127.441)">
                    <rect x="352.094" y="640.962" width="7.005" height="13.291" style="fill:rgb(255,180,8);"/>
                </g>
                <g transform="matrix(1.28488,0,0,1.20385,-16.8179,-79.4406)">
                    <rect x="352.094" y="640.962" width="7.005" height="13.291" style="fill:rgb(255,180,8);"/>
                </g>
                <g transform="matrix(1.28488,0,0,1.20385,-39.3179,-79.4406)">
                    <rect x="352.094" y="640.962" width="7.005" height="13.291" style="fill:rgb(255,180,8);"/>
                </g>
                <g transform="matrix(1.28488,0,0,1.20385,-39.3179,-55.4406)">
                    <rect x="352.094" y="640.962" width="7.005" height="13.291" style="fill:rgb(255,180,8);"/>
                </g>
                <g transform="matrix(1.28488,0,0,1.20385,-16.1144,-55.4406)">
                    <rect x="352.094" y="640.962" width="7.005" height="13.291" style="fill:rgb(255,180,8);"/>
                </g>
                <g transform="matrix(1.28488,0,0,1.20385,5.6821,-79.4406)">
                    <rect x="352.094" y="640.962" width="7.005" height="13.291" style="fill:rgb(255,180,8);"/>
                </g>
                <g transform="matrix(1.28488,0,0,1.20385,5.6821,-55.4406)">
                    <rect x="352.094" y="640.962" width="7.005" height="13.291" style="fill:rgb(255,180,8);"/>
                </g>
            </g>
            <g>
                <rect x="499.646" y="672.043" width="24.25" height="96" style="fill:rgb(1,127,151);"/>
                <g transform="matrix(1.28488,0,0,1.20385,55.7469,-91.5827)">
                    <rect x="352.094" y="640.962" width="7.005" height="13.291" style="fill:rgb(255,180,8);"/>
                </g>
                <g transform="matrix(1.28488,0,0,1.20385,55.7469,-67.5827)">
                    <rect x="352.094" y="640.962" width="7.005" height="13.291" style="fill:rgb(255,180,8);"/>
                </g>
                <g transform="matrix(1.28488,0,0,1.20385,55.7469,-43.5827)">
                    <rect x="352.094" y="640.962" width="7.005" height="13.291" style="fill:rgb(255,180,8);"/>
                </g>
            </g>
            <g>
                <rect x="203.896" y="672.043" width="24.25" height="96" style="fill:rgb(1,127,151);"/>
                <g transform="matrix(1.28488,0,0,1.20385,-241.753,-91.5827)">
                    <rect x="352.094" y="640.962" width="7.005" height="13.291" style="fill:rgb(255,180,8);"/>
                </g>
                <g transform="matrix(1.28488,0,0,1.20385,-241.753,-67.5827)">
                    <rect x="352.094" y="640.962" width="7.005" height="13.291" style="fill:rgb(255,180,8);"/>
                </g>
                <g transform="matrix(1.28488,0,0,1.20385,-241.753,-43.5827)">
                    <rect x="352.094" y="640.962" width="7.005" height="13.291" style="fill:rgb(255,180,8);"/>
                </g>
            </g>
        </g>
        <path d="M203.896,755.075C208.085,731.006 228.256,720.043 245.552,720.043C265.383,720.043 282.556,731.516 290.79,748.184C298.933,742.537 308.819,739.226 319.472,739.226C322.923,739.226 326.293,739.574 329.551,740.236C338.558,731.85 350.632,726.717 363.896,726.717C374.343,726.717 384.053,729.901 392.108,735.353C400.163,729.901 409.873,726.717 420.32,726.717C439.002,726.717 455.325,736.899 464.035,752.009C472.019,746.703 481.599,743.609 491.896,743.609C504.042,743.609 515.19,747.913 523.896,755.075L523.896,827.565L203.896,827.565L203.896,755.075Z" style="fill:rgb(1,163,0);"/>
    </g>
</svg>
